<svg version="1.0" xmlns="http://www.w3.org/2000/svg"
 width="326.000000pt" height="312.000000pt" viewBox="0 0 326.000000 312.000000"
 preserveAspectRatio="xMidYMid meet">

<g transform="translate(0.000000,312.000000) scale(0.100000,-0.100000)"
fill="#000000" stroke="none">
<path d="M290 2964 c-96 -26 -172 -89 -218 -184 l-27 -55 -3 -1185 c-1 -752 1
-1202 7 -1231 12 -56 76 -155 127 -197 22 -18 66 -38 112 -51 l77 -22 1310 3
1310 3 57 28 c72 35 134 97 167 167 l26 55 -3 1220 -4 1220 -23 50 c-40 88
-120 154 -220 180 -87 22 -2610 22 -2695 -1z m2711 -147 c29 -16 54 -40 74
-72 29 -47 30 -52 30 -174 l0 -126 -1465 0 -1465 0 0 126 c0 122 1 127 30 174
20 32 45 56 74 72 l44 23 1317 0 1317 0 44 -23z m-1580 -597 c83 -257 359
-1113 414 -1280 35 -107 103 -316 150 -465 48 -148 90 -276 92 -282 4 -10
-175 -13 -874 -13 l-880 0 -44 23 c-29 16 -54 40 -74 72 l-30 48 -3 994 -2
993 612 -2 612 -3 27 -85z m1687 -903 l-3 -994 -30 -48 c-20 -32 -45 -56 -74
-72 -44 -23 -46 -23 -412 -23 l-368 0 -67 206 -66 205 79 74 78 73 146 -144
c135 -133 157 -150 199 -145 21 3 50 39 50 64 0 13 -54 75 -151 173 l-152 153
50 68 c107 148 188 298 228 421 l17 52 84 0 c71 0 87 3 104 20 28 28 25 64 -6
89 -25 20 -39 21 -265 21 l-239 0 0 29 c0 36 -17 83 -33 93 -22 14 -64 8 -82
-12 -9 -10 -20 -40 -22 -65 l-6 -45 -189 0 c-142 0 -190 3 -193 13 -2 6 -44
138 -94 292 -49 154 -104 325 -122 380 -17 55 -33 103 -36 108 -2 4 352 7 787
7 l790 0 -2 -993z m-623 41 c-22 -76 -154 -314 -218 -392 l-24 -29 -57 74
c-32 40 -67 91 -77 112 -33 64 -107 70 -130 11 -13 -37 20 -103 106 -211 36
-46 65 -85 65 -89 0 -8 -94 -93 -103 -94 -4 0 -9 6 -12 13 -80 243 -195 607
-195 615 0 9 85 12 326 12 l325 0 -6 -22z"/>
<path d="M330 2690 c-43 -43 -14 -110 48 -110 59 0 83 72 36 109 -33 26 -58
27 -84 1z"/>
<path d="M600 2692 c-44 -36 -17 -112 40 -112 57 0 84 76 40 112 -12 10 -30
18 -40 18 -10 0 -28 -8 -40 -18z"/>
<path d="M865 2685 c-14 -13 -25 -33 -25 -45 0 -29 35 -60 68 -60 57 0 83 69
42 110 -27 27 -56 25 -85 -5z"/>
<path d="M932 2023 c-13 -12 -79 -183 -185 -483 -91 -256 -168 -474 -171 -486
-9 -30 28 -74 63 -74 40 0 58 26 102 146 21 59 39 109 39 111 0 2 87 3 194 3
176 0 194 -2 199 -17 24 -83 80 -220 94 -230 42 -32 103 -3 103 48 0 41 -337
972 -356 986 -25 18 -58 16 -82 -4z m113 -446 c37 -104 65 -190 62 -193 -2 -2
-65 -3 -139 -2 l-135 3 53 150 c74 207 86 237 89 233 1 -2 33 -88 70 -191z"/>
</g>
</svg>
